<svg id="svg" version="1.1" xmlns="http://www.w3.org/2000/svg" xmlns:xlink="http://www.w3.org/1999/xlink" width="400" height="197.8494623655914" viewBox="0, 0, 400,197.8494623655914"><g id="svgg"><path id="path0" d="M0.000 98.961 L 0.000 197.922 200.000 197.922 L 400.000 197.922 400.000 98.961 L 400.000 0.000 200.000 0.000 L 0.000 0.000 0.000 98.961 M206.027 41.175 C 206.693 43.445,206.456 46.395,205.430 48.590 C 205.227 49.025,204.964 49.604,204.846 49.876 C 203.681 52.558,200.722 55.929,196.331 59.574 C 194.078 61.445,192.501 62.948,191.911 63.786 C 191.740 64.028,191.331 64.607,191.001 65.074 C 190.671 65.540,190.401 66.034,190.401 66.170 C 190.401 66.306,190.223 66.767,190.005 67.194 C 189.245 68.685,189.560 72.056,190.626 73.825 C 190.724 73.988,190.931 74.396,191.086 74.731 C 191.241 75.066,191.506 75.456,191.676 75.597 C 191.845 75.737,191.984 75.961,191.984 76.094 C 191.984 76.227,192.207 76.595,192.479 76.911 C 192.751 77.228,192.973 77.598,192.974 77.734 C 192.974 77.870,193.048 77.981,193.138 77.981 C 193.229 77.981,193.573 78.404,193.904 78.921 C 197.077 83.887,193.955 82.264,188.862 76.299 C 188.397 75.755,187.908 75.179,187.774 75.019 C 187.366 74.532,186.442 73.030,186.442 72.853 C 186.442 72.761,186.313 72.579,186.156 72.448 C 185.998 72.317,185.768 71.883,185.644 71.483 C 185.520 71.084,185.290 70.470,185.132 70.119 C 184.674 69.100,184.738 66.329,185.242 65.390 C 185.467 64.971,185.651 64.523,185.651 64.395 C 185.651 63.522,189.721 59.418,193.370 56.612 C 194.077 56.068,194.834 55.458,195.052 55.257 C 195.270 55.055,196.116 54.353,196.932 53.696 C 202.213 49.447,204.514 45.253,204.159 40.529 C 203.999 38.417,204.074 38.274,204.921 39.061 C 205.421 39.526,205.700 40.060,206.027 41.175 M212.527 55.443 C 212.579 55.720,211.097 56.951,209.579 57.892 C 209.404 58.001,208.878 58.357,208.412 58.684 C 207.945 59.010,207.405 59.371,207.212 59.486 C 203.042 61.955,200.005 66.621,201.163 68.778 C 201.338 69.104,201.483 69.514,201.483 69.688 C 201.484 69.862,201.640 70.189,201.831 70.415 C 202.021 70.642,202.355 71.120,202.573 71.478 C 202.983 72.151,203.123 72.361,204.208 73.915 C 206.547 77.268,204.538 83.257,200.595 84.683 C 199.605 85.041,199.576 84.938,200.202 83.285 C 200.881 81.490,201.033 80.169,200.632 79.535 C 200.470 79.279,200.272 78.849,200.191 78.580 C 200.110 78.310,199.576 77.509,199.004 76.799 C 197.952 75.492,197.316 74.529,196.911 73.627 C 196.789 73.355,196.502 72.731,196.272 72.241 C 195.642 70.896,195.654 67.113,196.291 66.083 C 196.535 65.689,196.734 65.221,196.734 65.043 C 196.734 64.866,196.912 64.542,197.130 64.325 C 197.348 64.107,197.527 63.862,197.529 63.780 C 197.539 63.265,201.184 60.010,202.778 59.093 C 203.101 58.907,203.721 58.541,204.156 58.278 C 205.017 57.759,205.379 57.580,207.026 56.852 C 207.625 56.588,208.337 56.256,208.610 56.115 C 208.882 55.975,209.416 55.793,209.797 55.713 C 210.178 55.632,210.668 55.440,210.886 55.287 C 211.404 54.922,212.447 55.022,212.527 55.443 M221.444 82.257 C 225.232 83.333,227.067 86.754,225.731 90.250 C 225.439 91.013,225.119 91.638,225.020 91.638 C 224.920 91.638,224.839 91.738,224.839 91.861 C 224.839 93.219,219.132 96.901,215.802 97.691 C 214.303 98.047,213.125 97.918,214.184 97.514 C 214.474 97.404,214.806 97.105,214.922 96.851 C 215.038 96.596,215.261 96.388,215.418 96.388 C 215.576 96.388,215.969 96.165,216.292 95.893 C 216.616 95.621,216.943 95.398,217.020 95.398 C 217.279 95.398,219.809 93.127,220.396 92.367 C 220.717 91.952,221.136 91.464,221.326 91.284 C 221.517 91.104,221.672 90.838,221.672 90.694 C 221.672 90.549,221.851 90.062,222.068 89.612 C 223.420 86.813,220.772 83.520,217.082 83.413 C 215.036 83.353,214.845 82.999,216.661 82.634 C 217.008 82.565,217.397 82.380,217.527 82.224 C 217.851 81.833,220.015 81.852,221.444 82.257 M184.636 82.862 L 185.106 82.988 184.636 83.249 C 184.378 83.392,184.051 83.512,183.911 83.516 C 183.770 83.520,183.414 83.700,183.119 83.917 C 182.824 84.134,181.846 84.612,180.945 84.980 C 179.384 85.617,178.525 86.163,178.525 86.518 C 178.525 88.172,197.963 88.131,208.313 86.455 C 212.382 85.796,212.909 86.315,209.917 88.037 C 208.957 88.589,205.135 89.386,201.583 89.775 C 200.168 89.930,198.120 90.158,197.031 90.282 C 194.478 90.573,183.095 90.578,180.901 90.290 C 179.975 90.169,178.461 89.975,177.536 89.860 C 174.321 89.459,171.994 88.438,171.994 87.428 C 171.994 86.785,174.178 85.110,175.023 85.105 C 175.153 85.104,175.527 84.959,175.854 84.781 C 176.538 84.409,178.572 83.777,180.010 83.490 C 180.554 83.382,181.578 83.175,182.286 83.031 C 183.841 82.716,184.035 82.702,184.636 82.862 M182.283 93.383 C 182.293 94.835,183.166 95.122,188.517 95.425 C 193.280 95.696,199.932 95.436,202.177 94.892 C 204.388 94.356,206.960 94.285,207.580 94.743 C 207.874 94.961,208.404 95.289,208.758 95.472 C 209.923 96.074,209.270 97.212,207.572 97.537 C 207.000 97.647,205.863 97.873,205.047 98.039 C 198.458 99.379,188.794 99.687,184.685 98.688 C 184.073 98.539,183.062 98.311,182.438 98.181 C 181.814 98.051,181.252 97.861,181.189 97.760 C 181.126 97.658,180.920 97.575,180.730 97.575 C 178.689 97.575,177.991 94.681,179.750 93.517 C 181.476 92.375,182.276 92.333,182.283 93.383 M184.374 102.146 C 184.769 102.910,185.018 103.012,187.531 103.440 C 190.445 103.935,197.211 103.951,199.708 103.468 C 203.450 102.744,204.193 102.768,206.086 103.676 C 209.044 105.095,208.678 105.897,204.559 107.022 C 196.849 109.128,186.865 108.719,182.563 106.120 C 180.599 104.934,180.572 103.089,182.504 101.973 C 183.664 101.303,183.952 101.330,184.374 102.146 M177.321 107.011 C 177.882 107.161,177.379 107.437,173.722 108.985 C 172.550 109.481,171.507 110.044,171.404 110.235 C 170.967 111.051,173.143 111.965,176.645 112.436 C 177.407 112.539,179.055 112.777,180.307 112.966 C 182.241 113.259,184.097 113.310,192.677 113.310 C 203.046 113.310,202.588 113.333,210.886 112.417 C 216.957 111.747,220.527 110.604,221.048 109.164 C 221.346 108.339,221.734 108.267,222.184 108.955 C 225.143 113.469,200.950 117.730,182.385 115.964 C 181.296 115.860,179.248 115.688,177.833 115.582 C 176.418 115.475,174.547 115.260,173.676 115.104 C 172.806 114.948,171.326 114.724,170.389 114.606 C 166.240 114.084,164.625 112.695,165.951 110.788 C 166.215 110.408,167.746 109.253,167.986 109.253 C 168.069 109.253,168.538 109.041,169.027 108.782 C 169.516 108.524,170.206 108.249,170.561 108.172 C 170.916 108.096,171.450 107.912,171.749 107.763 C 172.047 107.615,172.988 107.407,173.841 107.302 C 174.693 107.196,175.443 107.058,175.506 106.994 C 175.660 106.840,176.720 106.850,177.321 107.011 M225.546 113.078 C 225.885 113.961,224.490 115.441,222.234 116.592 C 215.992 119.777,196.734 121.192,183.442 119.442 C 176.702 118.555,177.927 117.486,185.046 118.043 C 190.070 118.437,196.375 118.448,201.027 118.073 C 202.966 117.916,205.398 117.729,206.432 117.657 C 207.467 117.585,208.847 117.410,209.500 117.267 C 210.153 117.125,211.222 116.952,211.875 116.884 C 212.927 116.774,213.828 116.596,217.318 115.808 C 219.095 115.408,220.601 114.954,221.389 114.581 C 221.831 114.372,222.268 114.201,222.358 114.201 C 222.619 114.201,224.637 113.180,224.756 112.988 C 224.919 112.724,225.433 112.783,225.546 113.078 M171.940 125.482 C 172.382 126.345,172.183 150.403,171.723 151.707 C 170.922 153.979,169.379 156.014,167.895 156.757 C 167.591 156.909,167.209 157.137,167.046 157.264 C 166.170 157.943,164.077 157.025,164.077 155.962 C 164.077 155.871,164.027 155.666,163.965 155.505 C 163.835 155.165,164.973 153.785,165.384 153.785 C 165.536 153.785,165.661 153.696,165.661 153.586 C 165.661 153.476,165.883 153.193,166.155 152.957 C 166.428 152.720,166.651 152.431,166.651 152.315 C 166.652 152.198,166.808 151.836,166.998 151.509 C 167.313 150.966,167.351 149.826,167.442 138.229 C 167.524 127.745,167.589 125.485,167.818 125.209 C 168.313 124.613,171.607 124.832,171.940 125.482 M186.633 131.995 C 187.919 132.649,189.178 134.055,189.423 135.113 C 189.764 136.582,189.654 150.348,189.298 150.703 C 188.635 151.367,186.244 150.982,186.244 150.212 C 186.244 149.766,185.257 149.809,184.429 150.292 C 181.067 152.253,176.028 151.539,175.252 148.992 C 175.176 148.744,174.969 148.375,174.791 148.173 C 174.242 147.549,174.359 144.434,174.974 143.280 C 176.357 140.688,178.863 139.361,182.682 139.198 C 185.478 139.078,185.453 139.089,185.453 138.072 C 185.453 136.745,184.677 135.513,183.623 135.163 C 182.256 134.710,178.313 134.980,177.089 135.610 C 176.607 135.859,175.821 135.043,175.647 134.113 C 175.472 133.184,175.912 132.489,176.787 132.313 C 177.144 132.241,177.746 132.042,178.124 131.870 C 179.905 131.061,184.942 131.134,186.633 131.995 M221.617 131.936 C 222.888 132.526,223.504 133.127,224.202 134.453 L 224.740 135.477 224.740 142.919 C 224.740 151.355,224.803 151.014,223.241 151.014 C 222.348 151.014,221.285 150.703,221.270 150.438 C 221.226 149.619,220.481 149.585,219.495 150.356 C 217.419 151.981,212.705 151.740,211.084 149.926 C 210.071 148.793,209.967 148.639,209.781 147.988 C 208.387 143.128,211.700 139.533,217.879 139.200 C 220.596 139.053,220.744 138.901,220.185 136.828 C 219.667 134.908,218.017 134.463,214.054 135.172 C 211.367 135.653,210.908 135.536,210.678 134.308 C 210.486 133.283,210.921 132.553,211.877 132.297 C 212.311 132.181,212.934 131.970,213.261 131.829 C 214.941 131.103,219.963 131.167,221.617 131.936 M195.547 131.596 C 195.909 131.695,196.121 131.969,196.338 132.618 C 196.502 133.105,196.701 133.603,196.780 133.724 C 196.860 133.845,197.055 134.467,197.214 135.107 C 197.472 136.147,197.670 136.792,198.361 138.842 C 198.472 139.169,198.691 139.926,198.848 140.524 C 199.006 141.123,199.261 141.889,199.414 142.225 C 199.567 142.562,199.750 143.327,199.820 143.925 C 200.007 145.514,200.757 145.393,201.100 143.719 C 201.226 143.105,201.404 142.511,201.494 142.399 C 201.585 142.286,201.795 141.542,201.961 140.744 C 202.128 139.946,202.346 139.192,202.446 139.068 C 202.546 138.944,202.692 138.263,202.771 137.556 C 202.849 136.848,203.036 135.913,203.185 135.477 C 203.335 135.042,203.516 134.129,203.587 133.449 C 203.762 131.770,203.925 131.598,205.455 131.478 C 207.971 131.281,208.898 132.266,207.954 134.131 C 207.799 134.436,207.610 135.265,207.533 135.972 C 207.455 136.680,207.270 137.526,207.121 137.853 C 206.972 138.179,206.763 138.936,206.656 139.535 C 206.550 140.134,206.323 140.891,206.152 141.217 C 205.981 141.544,205.841 142.037,205.840 142.313 C 205.839 142.590,205.666 143.155,205.454 143.570 C 205.243 143.984,205.010 144.604,204.937 144.948 C 204.864 145.291,204.636 145.945,204.431 146.402 C 204.225 146.858,204.057 147.354,204.057 147.502 C 204.057 147.650,203.925 147.945,203.764 148.156 C 203.602 148.367,203.373 148.885,203.255 149.305 C 202.847 150.759,202.377 151.014,200.117 151.014 C 197.455 151.014,196.734 150.585,196.734 148.998 C 196.734 148.792,196.569 148.293,196.366 147.889 C 196.164 147.485,195.937 146.759,195.863 146.274 C 195.788 145.790,195.631 145.277,195.513 145.136 C 195.396 144.994,195.184 144.366,195.042 143.740 C 194.901 143.115,194.635 142.157,194.452 141.613 C 194.269 141.069,194.030 140.356,193.920 140.030 C 193.809 139.703,193.590 138.946,193.433 138.347 C 193.275 137.749,193.022 136.986,192.870 136.652 C 192.718 136.319,192.534 135.651,192.460 135.168 C 192.386 134.685,192.234 134.174,192.122 134.032 C 191.660 133.448,191.621 132.014,192.058 131.707 C 192.488 131.406,194.612 131.338,195.547 131.596 M227.645 132.254 C 228.193 133.097,227.573 133.429,226.076 133.095 C 225.584 132.985,225.438 132.132,225.878 131.938 C 226.275 131.763,227.464 131.976,227.645 132.254 M181.000 142.675 C 179.200 143.420,178.740 144.168,179.003 145.921 C 179.356 148.278,182.907 148.510,185.007 146.314 C 185.582 145.713,185.687 142.636,185.140 142.426 C 184.508 142.184,181.790 142.347,181.000 142.675 M215.851 142.796 C 214.575 143.321,214.456 143.439,214.125 144.513 C 213.293 147.215,215.731 148.706,218.687 147.303 C 220.369 146.505,221.050 144.554,220.255 142.810 C 219.927 142.089,217.589 142.082,215.851 142.796 " stroke="none" fill="#fbfbfb" fill-rule="evenodd"></path><path id="path1" d="M219.416 82.898 C 219.337 83.025,219.552 83.231,219.933 83.395 C 223.292 84.839,223.775 89.255,220.943 92.638 C 219.797 94.006,217.772 95.794,217.368 95.794 C 217.232 95.794,217.120 95.883,217.120 95.992 C 217.120 96.615,219.062 95.924,221.271 94.517 C 226.398 91.249,227.073 85.966,222.690 83.394 C 221.740 82.836,219.649 82.520,219.416 82.898 M180.604 83.919 C 180.536 84.028,180.665 84.117,180.889 84.117 C 181.113 84.117,181.296 84.028,181.296 83.919 C 181.296 83.810,181.168 83.721,181.011 83.721 C 180.854 83.721,180.671 83.810,180.604 83.919 M177.335 84.878 C 176.956 85.079,176.378 85.309,176.051 85.389 C 172.991 86.138,171.855 88.110,174.230 88.549 C 174.470 88.593,175.646 88.839,176.843 89.094 C 180.063 89.782,198.703 89.801,201.583 89.119 C 202.563 88.887,204.043 88.654,204.871 88.601 C 205.796 88.543,206.729 88.346,207.285 88.093 C 207.784 87.865,208.442 87.678,208.747 87.676 C 209.461 87.672,209.940 87.395,209.598 87.184 C 209.249 86.968,205.719 87.257,204.532 87.598 C 201.230 88.547,180.286 88.558,178.842 87.612 C 177.750 86.896,177.784 85.793,178.918 85.148 C 180.130 84.458,178.615 84.200,177.335 84.878 M180.505 93.764 C 178.357 95.168,178.864 96.562,181.791 97.307 C 182.335 97.445,183.271 97.690,183.869 97.850 C 187.152 98.731,198.330 98.719,202.474 97.831 C 203.290 97.656,204.706 97.401,205.620 97.264 C 206.611 97.116,207.484 96.865,207.785 96.641 C 209.480 95.375,206.176 94.350,203.567 95.333 C 203.093 95.511,201.755 95.671,200.202 95.736 C 198.785 95.794,197.139 95.965,196.544 96.115 C 195.294 96.431,191.012 96.465,189.510 96.171 C 188.966 96.064,187.339 95.907,185.895 95.823 C 183.003 95.653,182.617 95.502,181.730 94.193 C 181.175 93.374,181.128 93.357,180.505 93.764 M182.631 102.594 C 181.580 103.193,181.292 104.430,182.058 105.048 C 182.554 105.447,185.258 106.680,185.639 106.680 C 185.824 106.680,186.636 106.868,187.445 107.097 C 189.138 107.577,196.908 107.859,198.911 107.512 C 201.881 106.999,203.660 106.611,204.619 106.267 C 205.200 106.059,205.829 105.888,206.016 105.888 C 206.564 105.888,207.063 105.423,206.919 105.048 C 206.477 103.897,202.695 103.081,201.254 103.827 C 198.534 105.233,184.733 104.328,184.058 102.698 C 183.783 102.034,183.633 102.023,182.631 102.594 M173.142 108.105 C 173.327 108.290,173.432 108.290,173.617 108.105 C 173.802 107.920,173.749 107.867,173.380 107.867 C 173.010 107.867,172.957 107.920,173.142 108.105 M169.817 109.053 C 169.436 109.260,168.723 109.620,168.234 109.853 C 166.594 110.633,165.717 111.797,166.208 112.541 C 166.452 112.913,167.987 113.607,168.572 113.611 C 168.876 113.614,169.703 113.748,170.411 113.909 C 171.118 114.071,172.944 114.331,174.468 114.487 C 175.992 114.644,178.263 114.918,179.515 115.097 C 182.805 115.567,201.057 115.566,203.859 115.095 C 207.397 114.502,207.918 114.432,209.005 114.407 C 209.604 114.393,210.450 114.245,210.886 114.078 C 211.321 113.912,212.424 113.656,213.337 113.511 C 214.250 113.365,215.056 113.150,215.129 113.033 C 215.232 112.865,216.944 112.420,217.484 112.420 C 217.545 112.420,217.501 112.326,217.387 112.211 C 217.098 111.922,215.141 112.195,215.141 112.523 C 215.141 112.708,214.374 112.810,212.222 112.911 C 210.616 112.986,208.857 113.177,208.313 113.336 C 205.668 114.107,181.050 114.114,178.427 113.345 C 177.882 113.185,176.731 113.001,175.868 112.935 C 175.004 112.869,174.112 112.692,173.884 112.543 C 173.656 112.394,173.071 112.204,172.584 112.122 C 171.949 112.015,171.517 111.782,171.063 111.301 L 170.429 110.630 170.830 109.950 C 171.051 109.576,171.403 109.216,171.613 109.149 C 172.253 108.946,172.038 108.659,171.252 108.668 C 170.844 108.673,170.198 108.846,169.817 109.053 M222.468 114.743 C 222.306 114.806,222.060 114.972,221.921 115.112 C 221.782 115.251,221.246 115.428,220.730 115.505 C 220.214 115.582,219.611 115.763,219.390 115.907 C 219.168 116.051,218.329 116.263,217.525 116.377 C 216.720 116.491,215.952 116.675,215.818 116.787 C 215.684 116.898,214.653 117.110,213.527 117.257 C 212.401 117.404,211.168 117.627,210.787 117.752 C 210.406 117.877,208.936 118.029,207.521 118.090 C 205.721 118.167,204.740 118.299,204.255 118.530 C 203.662 118.812,202.613 118.870,196.936 118.929 C 188.669 119.015,187.783 119.250,194.989 119.445 C 200.406 119.591,204.884 119.412,206.828 118.972 C 207.318 118.861,208.679 118.766,209.853 118.762 C 211.391 118.756,212.303 118.649,213.119 118.380 C 213.741 118.176,214.830 117.965,215.539 117.912 C 216.247 117.860,217.245 117.627,217.755 117.394 C 218.265 117.162,218.937 116.972,219.249 116.972 C 219.560 116.972,219.988 116.840,220.200 116.678 C 220.411 116.517,220.913 116.292,221.316 116.178 C 222.115 115.954,223.652 115.020,223.652 114.759 C 223.652 114.577,222.917 114.567,222.468 114.743 " stroke="none" fill="#5286c2" fill-rule="evenodd"></path><path id="path2" d="M204.973 40.577 C 204.916 40.847,204.810 41.781,204.739 42.652 C 204.667 43.523,204.496 44.458,204.357 44.730 C 204.218 45.002,204.040 45.527,203.961 45.895 C 203.881 46.264,203.562 46.977,203.250 47.479 C 202.939 47.981,202.512 48.706,202.301 49.090 C 201.621 50.327,198.141 53.698,195.400 55.775 C 195.156 55.960,194.738 56.303,194.470 56.538 C 194.202 56.773,193.289 57.485,192.442 58.121 C 188.733 60.905,186.312 63.804,185.636 66.271 L 185.210 67.823 185.607 69.389 C 186.305 72.146,187.778 74.402,191.023 77.684 C 193.502 80.192,194.095 80.368,192.624 78.158 C 192.436 77.874,191.969 77.157,191.588 76.563 C 191.207 75.970,190.784 75.311,190.647 75.100 C 190.510 74.888,190.299 74.493,190.179 74.221 C 190.058 73.949,189.792 73.360,189.587 72.913 C 188.961 71.549,189.048 67.703,189.739 66.193 C 190.842 63.783,192.553 61.790,195.645 59.315 C 199.470 56.253,202.787 52.565,204.222 49.777 C 205.649 47.005,205.542 47.470,205.542 44.038 C 205.542 40.956,205.259 39.233,204.973 40.577 M207.423 57.297 C 207.288 57.460,206.830 57.697,206.407 57.824 C 205.983 57.951,205.537 58.174,205.416 58.320 C 205.295 58.466,205.113 58.585,205.010 58.585 C 203.575 58.585,197.130 64.351,197.130 65.635 C 197.130 65.734,196.946 66.159,196.721 66.579 C 196.144 67.654,196.004 69.708,196.429 70.856 C 196.610 71.346,196.852 72.057,196.966 72.436 C 197.081 72.816,197.343 73.340,197.548 73.601 C 197.754 73.862,197.922 74.155,197.922 74.252 C 197.922 74.348,198.491 75.164,199.187 76.066 C 201.111 78.559,201.286 78.967,201.286 80.957 C 201.286 82.012,201.197 82.742,201.049 82.890 C 200.864 83.074,200.925 83.127,201.323 83.127 C 201.904 83.127,202.846 82.183,203.933 80.511 C 205.188 78.581,205.082 76.045,203.666 74.128 C 203.228 73.535,202.870 73.002,202.870 72.944 C 202.870 72.886,202.578 72.456,202.221 71.989 C 198.575 67.212,200.000 63.856,208.203 57.904 C 208.644 57.583,209.005 57.249,209.005 57.161 C 209.005 56.878,207.677 56.992,207.423 57.297 M168.283 125.807 C 168.090 125.888,168.033 128.153,168.024 136.137 C 168.006 152.273,168.021 152.166,165.471 154.402 C 164.312 155.418,164.328 155.363,164.985 156.145 C 166.761 158.255,170.785 154.458,171.318 150.169 C 171.697 147.119,171.718 127.018,171.343 126.274 C 171.096 125.785,169.072 125.476,168.283 125.807 M180.406 131.986 C 179.861 132.064,179.238 132.227,179.020 132.348 C 178.803 132.469,178.199 132.632,177.679 132.710 C 176.639 132.866,176.348 133.188,176.348 134.184 C 176.348 134.960,176.664 135.079,177.639 134.671 C 178.715 134.222,182.701 134.057,183.761 134.419 C 185.076 134.867,185.849 136.091,185.846 137.719 C 185.841 139.586,185.819 139.605,183.433 139.757 C 182.312 139.829,180.908 140.031,180.313 140.206 C 179.718 140.381,179.118 140.524,178.981 140.524 C 178.522 140.524,176.586 141.892,176.121 142.544 C 174.209 145.230,174.807 148.840,177.381 150.145 C 179.338 151.138,184.286 150.442,185.144 149.054 C 185.491 148.493,186.376 148.822,186.693 149.629 C 187.103 150.673,188.665 150.847,189.030 149.888 C 189.507 148.631,189.169 135.569,188.636 134.686 C 188.049 133.713,187.233 132.806,186.947 132.806 C 186.829 132.806,186.393 132.623,185.977 132.400 C 185.134 131.948,182.197 131.730,180.406 131.986 M215.537 131.986 C 214.938 132.063,214.270 132.225,214.052 132.347 C 213.835 132.469,213.231 132.632,212.711 132.710 C 211.644 132.870,211.266 133.314,211.478 134.158 C 211.666 134.904,211.936 134.996,212.851 134.621 C 214.230 134.057,218.809 134.146,219.619 134.754 C 220.536 135.442,221.116 136.827,221.041 138.147 C 220.963 139.517,220.612 139.726,218.381 139.730 C 217.468 139.732,216.484 139.852,216.105 140.008 C 215.738 140.159,215.049 140.346,214.574 140.425 C 213.745 140.561,212.904 141.002,211.715 141.924 C 209.326 143.777,209.523 148.253,212.064 149.885 C 214.049 151.160,219.206 150.624,220.185 149.040 C 220.541 148.464,221.479 148.915,221.966 149.897 C 222.129 150.226,222.389 150.335,223.113 150.382 C 224.475 150.470,224.473 150.484,224.402 142.713 L 224.341 136.071 223.820 134.983 C 222.609 132.454,219.810 131.442,215.537 131.986 M192.607 132.360 C 192.412 132.728,192.704 134.359,193.254 135.972 C 193.774 137.499,194.179 138.804,194.452 139.832 C 194.596 140.376,194.857 141.153,195.031 141.557 C 195.206 141.962,195.352 142.496,195.356 142.745 C 195.359 142.993,195.534 143.553,195.745 143.988 C 195.955 144.424,196.130 144.983,196.134 145.231 C 196.138 145.480,196.283 146.014,196.458 146.419 C 196.632 146.824,196.903 147.688,197.060 148.339 C 197.506 150.193,197.827 150.421,199.997 150.421 C 202.036 150.421,202.344 150.212,202.983 148.402 C 203.141 147.952,203.350 147.488,203.446 147.370 C 203.542 147.252,203.715 146.843,203.830 146.462 C 203.945 146.081,204.316 145.012,204.654 144.087 C 204.993 143.162,205.387 141.915,205.531 141.316 C 205.674 140.717,205.936 139.896,206.112 139.492 C 206.288 139.087,206.432 138.489,206.432 138.163 C 206.432 137.837,206.600 137.144,206.805 136.623 C 207.009 136.102,207.240 134.958,207.317 134.081 C 207.489 132.115,207.341 131.922,205.751 132.054 C 204.268 132.177,204.112 132.360,203.961 134.153 C 203.891 134.990,203.661 136.247,203.450 136.946 C 203.240 137.644,203.068 138.465,203.068 138.769 C 203.068 139.073,202.902 139.749,202.700 140.270 C 202.498 140.791,202.271 141.618,202.195 142.108 C 202.120 142.598,201.939 143.180,201.794 143.402 C 201.649 143.624,201.427 144.302,201.301 144.908 C 200.862 147.022,199.799 146.954,199.493 144.793 C 199.389 144.061,199.204 143.275,199.082 143.046 C 198.959 142.817,198.745 142.178,198.605 141.627 C 198.465 141.075,198.213 140.267,198.046 139.832 C 197.878 139.396,197.737 138.839,197.733 138.594 C 197.728 138.349,197.546 137.816,197.328 137.409 C 197.110 137.003,196.932 136.460,196.932 136.203 C 196.932 135.946,196.795 135.446,196.628 135.094 C 196.460 134.741,196.215 134.017,196.083 133.485 C 195.742 132.108,193.179 131.278,192.607 132.360 M185.644 141.897 C 186.118 142.783,185.794 147.056,185.253 147.056 C 185.178 147.056,184.725 147.321,184.246 147.646 C 183.308 148.282,180.405 148.522,179.502 148.038 C 177.816 147.136,177.866 143.912,179.585 142.618 C 180.890 141.636,185.228 141.120,185.644 141.897 M220.683 141.910 C 221.208 142.435,221.264 145.597,220.763 146.432 C 219.907 147.857,217.018 148.708,214.867 148.168 C 212.959 147.689,212.860 143.846,214.721 142.521 C 215.982 141.623,219.986 141.213,220.683 141.910 " stroke="none" fill="#ce4848" fill-rule="evenodd"></path><path id="path3" d="M217.527 82.224 C 217.397 82.380,217.008 82.565,216.661 82.634 C 214.845 82.999,215.036 83.353,217.082 83.413 C 220.772 83.520,223.420 86.813,222.068 89.612 C 221.851 90.062,221.672 90.549,221.672 90.694 C 221.672 90.838,221.517 91.104,221.326 91.284 C 221.136 91.464,220.717 91.952,220.396 92.367 C 219.809 93.127,217.279 95.398,217.020 95.398 C 216.943 95.398,216.616 95.621,216.292 95.893 C 215.969 96.165,215.576 96.388,215.418 96.388 C 215.261 96.388,215.038 96.596,214.922 96.851 C 214.806 97.105,214.474 97.404,214.184 97.514 C 213.125 97.918,214.303 98.047,215.802 97.691 C 219.132 96.901,224.839 93.219,224.839 91.861 C 224.839 91.738,224.920 91.638,225.020 91.638 C 225.119 91.638,225.439 91.013,225.731 90.250 C 227.067 86.754,225.232 83.333,221.444 82.257 C 220.015 81.852,217.851 81.833,217.527 82.224 M182.286 83.031 C 181.578 83.175,180.554 83.382,180.010 83.490 C 178.572 83.777,176.538 84.409,175.854 84.781 C 175.527 84.959,175.153 85.104,175.023 85.105 C 174.178 85.110,171.994 86.785,171.994 87.428 C 171.994 88.438,174.321 89.459,177.536 89.860 C 178.461 89.975,179.975 90.169,180.901 90.290 C 183.095 90.578,194.478 90.573,197.031 90.282 C 198.120 90.158,200.168 89.930,201.583 89.775 C 205.135 89.386,208.957 88.589,209.917 88.037 C 212.909 86.315,212.382 85.796,208.313 86.455 C 197.963 88.131,178.525 88.172,178.525 86.518 C 178.525 86.163,179.384 85.617,180.945 84.980 C 181.846 84.612,182.824 84.134,183.119 83.917 C 183.414 83.700,183.770 83.520,183.911 83.516 C 184.051 83.512,184.378 83.392,184.636 83.249 L 185.106 82.988 184.636 82.862 C 184.035 82.702,183.841 82.716,182.286 83.031 M222.690 83.394 C 227.073 85.966,226.398 91.249,221.271 94.517 C 219.062 95.924,217.120 96.615,217.120 95.992 C 217.120 95.883,217.232 95.794,217.368 95.794 C 217.772 95.794,219.797 94.006,220.943 92.638 C 223.775 89.255,223.292 84.839,219.933 83.395 C 218.953 82.974,219.339 82.662,220.689 82.785 C 221.403 82.849,222.150 83.077,222.690 83.394 M181.296 83.919 C 181.296 84.028,181.113 84.117,180.889 84.117 C 180.665 84.117,180.536 84.028,180.604 83.919 C 180.671 83.810,180.854 83.721,181.011 83.721 C 181.168 83.721,181.296 83.810,181.296 83.919 M179.514 84.661 C 179.513 84.743,179.245 84.962,178.918 85.148 C 177.784 85.793,177.750 86.896,178.842 87.612 C 180.286 88.558,201.230 88.547,204.532 87.598 C 205.719 87.257,209.249 86.968,209.598 87.184 C 209.940 87.395,209.461 87.672,208.747 87.676 C 208.442 87.678,207.784 87.865,207.285 88.093 C 206.729 88.346,205.796 88.543,204.871 88.601 C 204.043 88.654,202.563 88.887,201.583 89.119 C 198.703 89.801,180.063 89.782,176.843 89.094 C 175.646 88.839,174.470 88.593,174.230 88.549 C 171.855 88.110,172.991 86.138,176.051 85.389 C 176.378 85.309,176.956 85.079,177.335 84.878 C 178.012 84.519,179.516 84.369,179.514 84.661 M181.271 92.735 C 178.576 93.677,177.784 95.663,179.576 96.981 C 180.021 97.308,180.540 97.575,180.730 97.575 C 180.920 97.575,181.126 97.658,181.189 97.760 C 181.252 97.861,181.814 98.051,182.438 98.181 C 183.062 98.311,184.073 98.539,184.685 98.688 C 188.794 99.687,198.458 99.379,205.047 98.039 C 205.863 97.873,207.000 97.647,207.572 97.537 C 209.270 97.212,209.923 96.074,208.758 95.472 C 208.404 95.289,207.874 94.961,207.580 94.743 C 206.960 94.285,204.388 94.356,202.177 94.892 C 199.932 95.436,193.280 95.696,188.517 95.425 C 183.166 95.122,182.293 94.835,182.283 93.383 C 182.278 92.592,182.067 92.456,181.271 92.735 M181.730 94.193 C 182.617 95.502,183.003 95.653,185.895 95.823 C 187.339 95.907,188.966 96.064,189.510 96.171 C 191.012 96.465,195.294 96.431,196.544 96.115 C 197.139 95.965,198.785 95.794,200.202 95.736 C 201.755 95.671,203.093 95.511,203.567 95.333 C 206.176 94.350,209.480 95.375,207.785 96.641 C 207.484 96.865,206.611 97.116,205.620 97.264 C 204.706 97.401,203.290 97.656,202.474 97.831 C 198.330 98.719,187.152 98.731,183.869 97.850 C 183.271 97.690,182.335 97.445,181.791 97.307 C 179.534 96.733,178.500 95.420,179.565 94.481 C 180.895 93.307,181.110 93.279,181.730 94.193 M182.504 101.973 C 180.572 103.089,180.599 104.934,182.563 106.120 C 186.865 108.719,196.849 109.128,204.559 107.022 C 208.678 105.897,209.044 105.095,206.086 103.676 C 204.193 102.768,203.450 102.744,199.708 103.468 C 197.211 103.951,190.445 103.935,187.531 103.440 C 185.018 103.012,184.769 102.910,184.374 102.146 C 183.952 101.330,183.664 101.303,182.504 101.973 M184.058 102.698 C 184.733 104.328,198.534 105.233,201.254 103.827 C 202.695 103.081,206.477 103.897,206.919 105.048 C 207.063 105.423,206.564 105.888,206.016 105.888 C 205.829 105.888,205.200 106.059,204.619 106.267 C 203.660 106.611,201.881 106.999,198.911 107.512 C 196.908 107.859,189.138 107.577,187.445 107.097 C 186.636 106.868,185.824 106.680,185.639 106.680 C 185.258 106.680,182.554 105.447,182.058 105.048 C 181.292 104.430,181.580 103.193,182.631 102.594 C 183.633 102.023,183.783 102.034,184.058 102.698 M175.506 106.994 C 175.443 107.058,174.693 107.196,173.841 107.302 C 172.988 107.407,172.047 107.615,171.749 107.763 C 171.450 107.912,170.916 108.096,170.561 108.172 C 170.206 108.249,169.516 108.524,169.027 108.782 C 168.538 109.041,168.069 109.253,167.986 109.253 C 167.746 109.253,166.215 110.408,165.951 110.788 C 164.625 112.695,166.240 114.084,170.389 114.606 C 171.326 114.724,172.806 114.948,173.676 115.104 C 174.547 115.260,176.418 115.475,177.833 115.582 C 179.248 115.688,181.296 115.860,182.385 115.964 C 200.950 117.730,225.143 113.469,222.184 108.955 C 221.734 108.267,221.346 108.339,221.048 109.164 C 220.527 110.604,216.957 111.747,210.886 112.417 C 202.588 113.333,203.046 113.310,192.677 113.310 C 184.097 113.310,182.241 113.259,180.307 112.966 C 179.055 112.777,177.407 112.539,176.645 112.436 C 173.143 111.965,170.967 111.051,171.404 110.235 C 171.507 110.044,172.550 109.481,173.722 108.985 C 177.379 107.437,177.882 107.161,177.321 107.011 C 176.720 106.850,175.660 106.840,175.506 106.994 M173.617 108.105 C 173.432 108.290,173.327 108.290,173.142 108.105 C 172.957 107.920,173.010 107.867,173.380 107.867 C 173.749 107.867,173.802 107.920,173.617 108.105 M171.994 108.844 C 171.994 108.945,171.822 109.083,171.613 109.149 C 171.403 109.216,171.051 109.576,170.830 109.950 L 170.429 110.630 171.063 111.301 C 171.517 111.782,171.949 112.015,172.584 112.122 C 173.071 112.204,173.656 112.394,173.884 112.543 C 174.112 112.692,175.004 112.869,175.868 112.935 C 176.731 113.001,177.882 113.185,178.427 113.345 C 181.050 114.114,205.668 114.107,208.313 113.336 C 208.857 113.177,210.616 112.986,212.222 112.911 C 214.374 112.810,215.141 112.708,215.141 112.523 C 215.141 112.195,217.098 111.922,217.387 112.211 C 217.501 112.326,217.545 112.420,217.484 112.420 C 216.944 112.420,215.232 112.865,215.129 113.033 C 215.056 113.150,214.250 113.365,213.337 113.511 C 212.424 113.656,211.321 113.912,210.886 114.078 C 210.450 114.245,209.604 114.393,209.005 114.407 C 207.918 114.432,207.397 114.502,203.859 115.095 C 201.057 115.566,182.805 115.567,179.515 115.097 C 178.263 114.918,175.992 114.644,174.468 114.487 C 172.944 114.331,171.118 114.071,170.411 113.909 C 169.703 113.748,168.876 113.614,168.572 113.611 C 167.987 113.607,166.452 112.913,166.208 112.541 C 165.717 111.797,166.594 110.633,168.234 109.853 C 168.723 109.620,169.436 109.260,169.817 109.053 C 170.537 108.662,171.994 108.522,171.994 108.844 M224.756 112.988 C 224.637 113.180,222.619 114.201,222.358 114.201 C 222.268 114.201,221.831 114.372,221.389 114.581 C 220.601 114.954,219.095 115.408,217.318 115.808 C 213.828 116.596,212.927 116.774,211.875 116.884 C 211.222 116.952,210.153 117.125,209.500 117.267 C 208.847 117.410,207.467 117.585,206.432 117.657 C 205.398 117.729,202.966 117.916,201.027 118.073 C 196.375 118.448,190.070 118.437,185.046 118.043 C 177.927 117.486,176.702 118.555,183.442 119.442 C 201.251 121.786,223.563 118.822,225.449 113.862 C 225.748 113.074,225.161 112.333,224.756 112.988 M223.652 114.759 C 223.652 115.020,222.115 115.954,221.316 116.178 C 220.913 116.292,220.411 116.517,220.200 116.678 C 219.988 116.840,219.560 116.972,219.249 116.972 C 218.937 116.972,218.265 117.162,217.755 117.394 C 217.245 117.627,216.247 117.860,215.539 117.912 C 214.830 117.965,213.741 118.176,213.119 118.380 C 212.303 118.649,211.391 118.756,209.853 118.762 C 208.679 118.766,207.318 118.861,206.828 118.972 C 204.884 119.412,200.406 119.591,194.989 119.445 C 187.783 119.250,188.669 119.015,196.936 118.929 C 202.613 118.870,203.662 118.812,204.255 118.530 C 204.740 118.299,205.721 118.167,207.521 118.090 C 208.936 118.029,210.406 117.877,210.787 117.752 C 211.168 117.627,212.401 117.404,213.527 117.257 C 214.653 117.110,215.684 116.898,215.818 116.787 C 215.952 116.675,216.720 116.491,217.525 116.377 C 218.329 116.263,219.168 116.051,219.390 115.907 C 219.611 115.763,220.214 115.582,220.730 115.505 C 221.246 115.428,221.782 115.251,221.921 115.112 C 222.378 114.655,223.652 114.396,223.652 114.759 " stroke="none" fill="#a6bcdc" fill-rule="evenodd"></path><path id="path4" d="M204.140 38.621 C 204.079 38.720,204.087 39.579,204.159 40.529 C 204.514 45.253,202.213 49.447,196.932 53.696 C 196.116 54.353,195.270 55.055,195.052 55.257 C 194.834 55.458,194.077 56.068,193.370 56.612 C 189.721 59.418,185.651 63.522,185.651 64.395 C 185.651 64.523,185.467 64.971,185.242 65.390 C 184.738 66.329,184.674 69.100,185.132 70.119 C 185.290 70.470,185.520 71.084,185.644 71.483 C 185.768 71.883,185.998 72.317,186.156 72.448 C 186.313 72.579,186.442 72.761,186.442 72.853 C 186.442 73.030,187.366 74.532,187.774 75.019 C 191.499 79.465,194.690 82.396,195.172 81.815 C 195.391 81.551,195.359 81.372,194.968 80.682 C 194.124 79.189,193.305 77.981,193.138 77.981 C 193.048 77.981,192.974 77.870,192.974 77.734 C 192.973 77.598,192.751 77.228,192.479 76.911 C 192.207 76.595,191.984 76.227,191.984 76.094 C 191.984 75.961,191.845 75.737,191.676 75.597 C 191.506 75.456,191.241 75.066,191.086 74.731 C 190.931 74.396,190.724 73.988,190.626 73.825 C 189.560 72.056,189.245 68.685,190.005 67.194 C 190.223 66.767,190.401 66.306,190.401 66.170 C 190.401 66.034,190.671 65.540,191.001 65.074 C 191.331 64.607,191.740 64.028,191.911 63.786 C 192.501 62.948,194.078 61.445,196.331 59.574 C 200.722 55.929,203.681 52.558,204.846 49.876 C 204.964 49.604,205.227 49.025,205.430 48.590 C 206.902 45.441,206.646 40.666,204.921 39.061 C 204.553 38.719,204.202 38.521,204.140 38.621 M205.542 44.038 C 205.542 47.470,205.649 47.005,204.222 49.777 C 202.787 52.565,199.470 56.253,195.645 59.315 C 192.553 61.790,190.842 63.783,189.739 66.193 C 189.048 67.703,188.961 71.549,189.587 72.913 C 189.792 73.360,190.058 73.949,190.179 74.221 C 190.299 74.493,190.510 74.888,190.647 75.100 C 190.784 75.311,191.207 75.970,191.588 76.563 C 191.969 77.157,192.436 77.874,192.624 78.158 C 194.095 80.368,193.502 80.192,191.023 77.684 C 187.778 74.402,186.305 72.146,185.607 69.389 L 185.210 67.823 185.636 66.271 C 186.312 63.804,188.733 60.905,192.442 58.121 C 193.289 57.485,194.202 56.773,194.470 56.538 C 194.738 56.303,195.156 55.960,195.400 55.775 C 198.141 53.698,201.621 50.327,202.301 49.090 C 202.512 48.706,202.939 47.981,203.250 47.479 C 203.562 46.977,203.881 46.264,203.961 45.895 C 204.040 45.527,204.218 45.002,204.357 44.730 C 204.496 44.458,204.667 43.523,204.739 42.652 C 205.061 38.724,205.542 39.553,205.542 44.038 M210.886 55.287 C 210.668 55.440,210.178 55.632,209.797 55.713 C 209.416 55.793,208.882 55.975,208.610 56.115 C 208.337 56.256,207.625 56.588,207.026 56.852 C 205.379 57.580,205.017 57.759,204.156 58.278 C 203.721 58.541,203.101 58.907,202.778 59.093 C 201.184 60.010,197.539 63.265,197.529 63.780 C 197.527 63.862,197.348 64.107,197.130 64.325 C 196.912 64.542,196.734 64.866,196.734 65.043 C 196.734 65.221,196.535 65.689,196.291 66.083 C 195.654 67.113,195.642 70.896,196.272 72.241 C 196.502 72.731,196.789 73.355,196.911 73.627 C 197.316 74.529,197.952 75.492,199.004 76.799 C 199.576 77.509,200.110 78.310,200.191 78.580 C 200.272 78.849,200.470 79.279,200.632 79.535 C 201.033 80.169,200.881 81.490,200.202 83.285 C 199.576 84.938,199.605 85.041,200.595 84.683 C 204.538 83.257,206.547 77.268,204.208 73.915 C 203.123 72.361,202.983 72.151,202.573 71.478 C 202.355 71.120,202.021 70.642,201.831 70.415 C 201.640 70.189,201.484 69.862,201.483 69.688 C 201.483 69.514,201.338 69.104,201.163 68.778 C 200.005 66.621,203.042 61.955,207.212 59.486 C 207.405 59.371,207.945 59.010,208.412 58.684 C 208.878 58.357,209.404 58.001,209.579 57.892 C 211.097 56.951,212.579 55.720,212.527 55.443 C 212.447 55.022,211.404 54.922,210.886 55.287 M209.005 57.161 C 209.005 57.249,208.644 57.583,208.203 57.904 C 200.000 63.856,198.575 67.212,202.221 71.989 C 202.578 72.456,202.870 72.886,202.870 72.944 C 202.870 73.002,203.228 73.535,203.666 74.128 C 205.082 76.045,205.188 78.581,203.933 80.511 C 202.846 82.183,201.904 83.127,201.323 83.127 C 200.925 83.127,200.864 83.074,201.049 82.890 C 201.197 82.742,201.286 82.012,201.286 80.957 C 201.286 78.967,201.111 78.559,199.187 76.066 C 198.491 75.164,197.922 74.348,197.922 74.252 C 197.922 74.155,197.754 73.862,197.548 73.601 C 197.343 73.340,197.081 72.816,196.966 72.436 C 196.852 72.057,196.610 71.346,196.429 70.856 C 196.004 69.708,196.144 67.654,196.721 66.579 C 196.946 66.159,197.130 65.734,197.130 65.635 C 197.130 64.351,203.575 58.585,205.010 58.585 C 205.113 58.585,205.295 58.466,205.416 58.320 C 205.537 58.174,205.983 57.951,206.407 57.824 C 206.830 57.697,207.288 57.460,207.423 57.297 C 207.677 56.992,209.005 56.878,209.005 57.161 M167.818 125.209 C 167.589 125.485,167.524 127.745,167.442 138.229 C 167.351 149.826,167.313 150.966,166.998 151.509 C 166.808 151.836,166.652 152.198,166.651 152.315 C 166.651 152.431,166.428 152.720,166.155 152.957 C 165.883 153.193,165.661 153.476,165.661 153.586 C 165.661 153.696,165.536 153.785,165.384 153.785 C 164.973 153.785,163.835 155.165,163.965 155.505 C 164.027 155.666,164.077 155.871,164.077 155.962 C 164.077 157.025,166.170 157.943,167.046 157.264 C 167.209 157.137,167.591 156.909,167.895 156.757 C 169.379 156.014,170.922 153.979,171.723 151.707 C 172.183 150.403,172.382 126.345,171.940 125.482 C 171.607 124.832,168.313 124.613,167.818 125.209 M171.343 126.274 C 171.718 127.018,171.697 147.119,171.318 150.169 C 170.785 154.458,166.761 158.255,164.985 156.145 C 164.328 155.363,164.312 155.418,165.471 154.402 C 168.021 152.166,168.006 152.273,168.024 136.137 C 168.033 128.153,168.090 125.888,168.283 125.807 C 169.072 125.476,171.096 125.785,171.343 126.274 M180.400 131.410 C 179.526 131.491,178.502 131.698,178.124 131.870 C 177.746 132.042,177.144 132.241,176.787 132.313 C 175.912 132.489,175.472 133.184,175.647 134.113 C 175.821 135.043,176.607 135.859,177.089 135.610 C 178.313 134.980,182.256 134.710,183.623 135.163 C 184.677 135.513,185.453 136.745,185.453 138.072 C 185.453 139.089,185.478 139.078,182.682 139.198 C 178.863 139.361,176.357 140.688,174.974 143.280 C 174.359 144.434,174.242 147.549,174.791 148.173 C 174.969 148.375,175.176 148.744,175.252 148.992 C 176.028 151.539,181.067 152.253,184.429 150.292 C 185.257 149.809,186.244 149.766,186.244 150.212 C 186.244 150.982,188.635 151.367,189.298 150.703 C 189.654 150.348,189.764 136.582,189.423 135.113 C 188.767 132.284,185.485 130.937,180.400 131.410 M215.438 131.417 C 214.567 131.503,213.587 131.688,213.261 131.829 C 212.934 131.970,212.311 132.181,211.877 132.297 C 210.921 132.553,210.486 133.283,210.678 134.308 C 210.908 135.536,211.367 135.653,214.054 135.172 C 218.017 134.463,219.667 134.908,220.185 136.828 C 220.744 138.901,220.596 139.053,217.879 139.200 C 211.700 139.533,208.387 143.128,209.781 147.988 C 209.967 148.639,210.071 148.793,211.084 149.926 C 212.705 151.740,217.419 151.981,219.495 150.356 C 220.481 149.585,221.226 149.619,221.270 150.438 C 221.285 150.703,222.348 151.014,223.241 151.014 C 224.803 151.014,224.740 151.355,224.740 142.919 L 224.740 135.477 224.202 134.453 C 222.807 131.799,220.322 130.939,215.438 131.417 M192.058 131.707 C 191.621 132.014,191.660 133.448,192.122 134.032 C 192.234 134.174,192.386 134.685,192.460 135.168 C 192.534 135.651,192.718 136.319,192.870 136.652 C 193.022 136.986,193.275 137.749,193.433 138.347 C 193.590 138.946,193.809 139.703,193.920 140.030 C 194.030 140.356,194.269 141.069,194.452 141.613 C 194.635 142.157,194.901 143.115,195.042 143.740 C 195.184 144.366,195.396 144.994,195.513 145.136 C 195.631 145.277,195.788 145.790,195.863 146.274 C 195.937 146.759,196.164 147.485,196.366 147.889 C 196.569 148.293,196.734 148.792,196.734 148.998 C 196.734 151.754,202.491 152.025,203.255 149.305 C 203.373 148.885,203.602 148.367,203.764 148.156 C 203.925 147.945,204.057 147.650,204.057 147.502 C 204.057 147.354,204.225 146.858,204.431 146.402 C 204.636 145.945,204.864 145.291,204.937 144.948 C 205.010 144.604,205.243 143.984,205.454 143.570 C 205.666 143.155,205.839 142.590,205.840 142.313 C 205.841 142.037,205.981 141.544,206.152 141.217 C 206.323 140.891,206.550 140.134,206.656 139.535 C 206.763 138.936,206.972 138.179,207.121 137.853 C 207.270 137.526,207.455 136.680,207.533 135.972 C 207.610 135.265,207.799 134.436,207.954 134.131 C 208.898 132.266,207.971 131.281,205.455 131.478 C 203.925 131.598,203.762 131.770,203.587 133.449 C 203.516 134.129,203.335 135.042,203.185 135.477 C 203.036 135.913,202.849 136.848,202.771 137.556 C 202.692 138.263,202.546 138.944,202.446 139.068 C 202.346 139.192,202.128 139.946,201.961 140.744 C 201.795 141.542,201.585 142.286,201.494 142.399 C 201.404 142.511,201.226 143.105,201.100 143.719 C 200.757 145.393,200.007 145.514,199.820 143.925 C 199.750 143.327,199.567 142.562,199.414 142.225 C 199.261 141.889,199.006 141.123,198.848 140.524 C 198.691 139.926,198.472 139.169,198.361 138.842 C 197.670 136.792,197.472 136.147,197.214 135.107 C 197.055 134.467,196.860 133.845,196.780 133.724 C 196.701 133.603,196.502 133.105,196.338 132.618 C 195.995 131.594,195.724 131.470,193.760 131.440 C 192.923 131.427,192.324 131.521,192.058 131.707 M185.977 132.400 C 186.393 132.623,186.829 132.806,186.947 132.806 C 187.233 132.806,188.049 133.713,188.636 134.686 C 189.169 135.569,189.507 148.631,189.030 149.888 C 188.665 150.847,187.103 150.673,186.693 149.629 C 186.376 148.822,185.491 148.493,185.144 149.054 C 184.286 150.442,179.338 151.138,177.381 150.145 C 174.807 148.840,174.209 145.230,176.121 142.544 C 176.586 141.892,178.522 140.524,178.981 140.524 C 179.118 140.524,179.718 140.381,180.313 140.206 C 180.908 140.031,182.312 139.829,183.433 139.757 C 185.819 139.605,185.841 139.586,185.846 137.719 C 185.849 136.091,185.076 134.867,183.761 134.419 C 182.701 134.057,178.715 134.222,177.639 134.671 C 176.664 135.079,176.348 134.960,176.348 134.184 C 176.348 133.188,176.639 132.866,177.679 132.710 C 178.199 132.632,178.803 132.469,179.020 132.348 C 180.176 131.705,184.743 131.739,185.977 132.400 M221.256 132.481 C 222.625 133.115,223.189 133.666,223.820 134.983 L 224.341 136.071 224.402 142.713 C 224.473 150.484,224.475 150.470,223.113 150.382 C 222.389 150.335,222.129 150.226,221.966 149.897 C 221.479 148.915,220.541 148.464,220.185 149.040 C 219.206 150.624,214.049 151.160,212.064 149.885 C 209.523 148.253,209.326 143.777,211.715 141.924 C 212.904 141.002,213.745 140.561,214.574 140.425 C 215.049 140.346,215.738 140.159,216.105 140.008 C 216.484 139.852,217.468 139.732,218.381 139.730 C 220.612 139.726,220.963 139.517,221.041 138.147 C 221.116 136.827,220.536 135.442,219.619 134.754 C 218.809 134.146,214.230 134.057,212.851 134.621 C 211.936 134.996,211.666 134.904,211.478 134.158 C 211.266 133.314,211.644 132.870,212.711 132.710 C 213.231 132.632,213.835 132.469,214.052 132.347 C 215.261 131.670,219.683 131.752,221.256 132.481 M225.878 131.938 C 225.438 132.132,225.584 132.985,226.076 133.095 C 227.573 133.429,228.193 133.097,227.645 132.254 C 227.464 131.976,226.275 131.763,225.878 131.938 M195.349 132.269 C 195.704 132.449,195.911 132.791,196.083 133.485 C 196.215 134.017,196.460 134.741,196.628 135.094 C 196.795 135.446,196.932 135.946,196.932 136.203 C 196.932 136.460,197.110 137.003,197.328 137.409 C 197.546 137.816,197.728 138.349,197.733 138.594 C 197.737 138.839,197.878 139.396,198.046 139.832 C 198.213 140.267,198.465 141.075,198.605 141.627 C 198.745 142.178,198.959 142.817,199.082 143.046 C 199.204 143.275,199.389 144.061,199.493 144.793 C 199.799 146.954,200.862 147.022,201.301 144.908 C 201.427 144.302,201.649 143.624,201.794 143.402 C 201.939 143.180,202.120 142.598,202.195 142.108 C 202.271 141.618,202.498 140.791,202.700 140.270 C 202.902 139.749,203.068 139.073,203.068 138.769 C 203.068 138.465,203.240 137.644,203.450 136.946 C 203.661 136.247,203.891 134.990,203.961 134.153 C 204.112 132.360,204.268 132.177,205.751 132.054 C 207.341 131.922,207.489 132.115,207.317 134.081 C 207.240 134.958,207.009 136.102,206.805 136.623 C 206.600 137.144,206.432 137.837,206.432 138.163 C 206.432 138.489,206.288 139.087,206.112 139.492 C 205.936 139.896,205.674 140.717,205.531 141.316 C 205.387 141.915,204.993 143.162,204.654 144.087 C 204.316 145.012,203.945 146.081,203.830 146.462 C 203.715 146.843,203.542 147.252,203.446 147.370 C 203.350 147.488,203.141 147.952,202.983 148.402 C 202.344 150.212,202.036 150.421,199.997 150.421 C 197.827 150.421,197.506 150.193,197.060 148.339 C 196.903 147.688,196.632 146.824,196.458 146.419 C 196.283 146.014,196.138 145.480,196.134 145.231 C 196.130 144.983,195.955 144.424,195.745 143.988 C 195.534 143.553,195.359 142.993,195.356 142.745 C 195.352 142.496,195.206 141.962,195.031 141.557 C 194.857 141.153,194.596 140.376,194.452 139.832 C 194.179 138.804,193.774 137.499,193.254 135.972 C 192.704 134.359,192.412 132.728,192.607 132.360 C 192.830 131.938,194.577 131.880,195.349 132.269 M181.494 141.849 C 178.682 142.505,177.481 144.601,178.624 146.857 C 179.263 148.119,179.536 148.244,181.630 148.240 C 183.236 148.237,183.444 148.190,184.246 147.646 C 184.725 147.321,185.178 147.056,185.253 147.056 C 185.794 147.056,186.118 142.783,185.644 141.897 C 185.386 141.415,183.451 141.393,181.494 141.849 M216.637 141.841 C 214.330 142.335,213.360 143.374,213.360 145.352 C 213.360 147.653,214.236 148.329,217.065 148.210 C 220.054 148.084,221.079 147.036,221.079 144.106 C 221.079 141.402,220.370 141.041,216.637 141.841 M185.140 142.426 C 185.687 142.636,185.582 145.713,185.007 146.314 C 182.249 149.198,178.059 147.747,179.101 144.269 C 179.526 142.850,183.268 141.708,185.140 142.426 M220.255 142.810 C 221.406 145.336,219.496 147.848,216.424 147.848 C 214.267 147.848,213.232 145.510,214.514 143.534 C 215.244 142.409,219.810 141.833,220.255 142.810 " stroke="none" fill="#e6b1b1" fill-rule="evenodd"></path></g></svg>