<?xml version="1.0" encoding="UTF-8" standalone="no"?>
<!-- Svg Vector Icons : http://www.onlinewebfonts.com/icon -->

<svg
   version="1.1"
   x="0px"
   y="0px"
   viewBox="0 0 24 24"
   enable-background="new 0 0 256 256"
   xml:space="preserve"
   id="svg7"
   sodipodi:docname="java.svg"
   width="24"
   height="24"
   xmlns:inkscape="http://www.inkscape.org/namespaces/inkscape"
   xmlns:sodipodi="http://sodipodi.sourceforge.net/DTD/sodipodi-0.dtd"
   xmlns="http://www.w3.org/2000/svg"
   xmlns:svg="http://www.w3.org/2000/svg"><defs
   id="defs7" /><sodipodi:namedview
   id="namedview7"
   pagecolor="#ffffff"
   bordercolor="#000000"
   borderopacity="0.25"
   inkscape:showpageshadow="2"
   inkscape:pageopacity="0.0"
   inkscape:pagecheckerboard="0"
   inkscape:deskcolor="#d1d1d1"
   inkscape:export-bgcolor="#ffffff00"><sodipodi:guide
     position="0,24"
     orientation="0,24"
     id="guide7"
     inkscape:locked="false" /><sodipodi:guide
     position="24,24"
     orientation="24,0"
     id="guide8"
     inkscape:locked="false" /><sodipodi:guide
     position="24,0"
     orientation="0,-24"
     id="guide9"
     inkscape:locked="false" /><sodipodi:guide
     position="0,0"
     orientation="-24,0"
     id="guide10"
     inkscape:locked="false" /><sodipodi:guide
     position="0,24"
     orientation="0,24"
     id="guide11"
     inkscape:locked="false" /><sodipodi:guide
     position="24,24"
     orientation="24,0"
     id="guide12"
     inkscape:locked="false" /><sodipodi:guide
     position="24,0"
     orientation="0,-24"
     id="guide13"
     inkscape:locked="false" /><sodipodi:guide
     position="0,0"
     orientation="-24,0"
     id="guide14"
     inkscape:locked="false" /></sodipodi:namedview>&#10;<metadata
   id="metadata1"> Svg Vector Icons : http://www.onlinewebfonts.com/icon </metadata>&#10;<g
   id="g7"
   transform="matrix(0.09435614,0,0,0.10137564,-0.99443241,-0.9416843)"><g
     id="g6"><path
       fill="#000000"
       d="m 168.7,105.8 -0.3,0.2 c 0,0 -1.3,1 -2,1.5 l -3,2.4 3.9,0.6 c 0.2,0 0.6,0.1 1.1,0.1 6.6,0.6 10.5,1.7 11.6,3.4 1.9,3 1.8,6.3 -0.4,9.1 -2.4,3.2 -5.5,5.9 -9.1,8.9 -1.5,1.3 -3.3,2.3 -5.2,3.5 -0.9,0.6 -1.9,1.1 -2.8,1.8 l -5.5,3.5 6.5,-0.4 c 8.6,-0.5 20.4,-6.9 25.3,-13.6 3,-4.1 3.9,-9.2 2.2,-13.6 -1.6,-4.2 -5.2,-7.1 -9.8,-8.2 H 181 c -1.5,-0.2 -3,-0.3 -4.5,-0.3 -4.5,0 -7.5,0.8 -7.6,0.8 z"
       id="path1" /><path
       fill="#000000"
       d="m 121.5,103.6 c 1.5,1.4 3.1,2.9 4.6,4.4 l 1.1,1.1 1.4,-1.1 c 0.2,-0.2 0.4,-0.3 0.7,-0.5 l 1.3,-1 -0.9,-1.3 c -0.9,-1.4 -1.9,-2.8 -2.8,-4.2 -2,-3.1 -4.2,-6.3 -6.2,-9.4 -5.8,-8.9 -5.2,-16.3 1.9,-23.9 2.4,-2.6 5.2,-4.9 7.9,-7.2 1,-0.8 2,-1.7 2.9,-2.5 7.6,-6.6 15,-14.3 17.5,-25.2 1.7,-7.3 0.2,-13.4 -4.3,-18.2 l -4.3,-4.6 1.4,6.1 c 2.2,9.6 -0.5,17.9 -8.1,25.4 -1.5,1.5 -3.2,3 -4.9,4.4 -1.2,1 -2.4,2 -3.6,3.1 -1.6,1.5 -3.3,3 -5,4.5 -4.8,4.3 -9.8,8.8 -14.4,13.6 -3.8,3.9 -4.5,9.3 -2.1,15.6 3.1,8.8 9.6,15 15.9,20.9 z"
       id="path2" /><path
       fill="#000000"
       d="m 101.7,124.2 h 0.1 c 0.2,0 0.4,0 0.6,0 l -1.7,0.8 c -2.2,1.1 -6.7,4.9 -6.3,9 0.3,3 3,5.2 8.1,6.5 4.5,1.2 10.1,1.7 16.6,1.7 v 0 c 18.4,0 38.8,-4.7 39,-4.7 l 1.3,-0.3 v -1.3 c 0,-0.6 0,-1.1 -4.4,-6.7 l -0.7,-0.9 -1.1,0.3 c -0.2,0 -16.6,4 -39.5,4 -1.7,0 -3.4,0 -5,-0.1 -3,-0.1 -5.1,-0.8 -5.8,-1.9 -0.8,-1.3 0.1,-3.2 0.1,-3.2 l 1.6,-3.1 c 0.3,0 0.6,0 0.9,0 27.8,0 57.8,-8.5 58.1,-8.5 l -0.6,-3.3 c -0.2,0 -12.9,1 -25.9,2 1.1,-1.1 2.2,-2.1 3.2,-3.1 2.4,-2.3 4.7,-4.5 6.5,-7 3.6,-5.1 3.5,-10.6 -0.2,-15.7 -1.4,-1.9 -2.7,-3.9 -4.4,-6.6 -3.3,-5.2 -3.1,-8.3 0.6,-12.6 2.3,-2.7 5.2,-5.4 8.9,-8.1 3.1,-2.3 6.3,-4.4 9.8,-6.7 1.6,-1 3.2,-2.1 4.9,-3.2 l 5.9,-3.9 -7.1,0.8 c -0.5,0 -0.9,0.1 -1.2,0.1 -0.7,0 -1.2,0.1 -1.8,0.3 -2,0.9 -4,1.8 -6,2.6 -5.2,2.3 -10.6,4.6 -15.7,7.4 -3.8,2.1 -7.5,5.6 -10.3,9.7 -5.7,8.1 -4.7,17 3,27 5.3,6.9 5.3,8 1,15.1 -0.4,0.6 -0.3,1.2 -0.2,1.8 0,0.3 0.1,0.7 0.2,1.3 l 0.1,1.1 c -11.6,0.8 -22.7,1.6 -24.8,1.6 h -0.1 c -7.9,-0.2 -10.2,-1.1 -10.9,-1.5 0.4,-0.4 1.5,-1.5 4.7,-3 2.5,-1.2 4.8,-2 4.9,-2.1 l 1.3,-0.5 -0.3,-2.9 h -1.6 c -0.5,0 -6.5,1.5 -11.2,3.2 -10.3,3.5 -11.8,6 -11.9,7.9 -0.3,3.5 4.7,5.5 17.3,6.7 z"
       id="path3" /><path
       fill="#000000"
       d="m 113.9,179.7 c -15.3,0 -23.2,-2.1 -23.3,-2.1 l -0.8,-0.2 c 2.4,0.1 4.9,0.1 7.6,0.1 v 0 c 15.6,0 36.8,-1.4 63.2,-4.1 v 0 c 14.7,-2 21.2,-6.9 22.3,-10.9 0.5,-1.7 0,-3.3 -1.3,-4.4 l -2.7,-2.3 -0.1,3.4 c -0.5,0.9 -5,3.3 -18.3,5.9 -9.2,1.8 -20.3,3.2 -27,3.4 -2.4,0.1 -5,0.1 -7.7,0.1 -9.1,0 -18.4,-0.5 -27.4,-1 -2.1,-0.1 -4.3,-0.2 -6.4,-0.3 v 0 c -7.5,-0.3 -8.3,-1.7 -8.3,-1.7 0,-0.2 0.4,-1.2 2.7,-3 1.9,-1.4 4.3,-2.6 5.8,-3.2 l 5.9,-2.3 -6.3,-1 c -1.1,-0.2 -2.3,-0.3 -3.7,-0.3 -6.2,0 -17.7,1.8 -22.3,6.8 -1.4,1.5 -2,3.1 -2,4.8 0,0 0,0.2 0,0.2 0,0.8 -0.1,2.6 1.6,4.3 2.6,2.7 9,4.4 19.3,5.1 l 4,3.4 c 0.4,0.3 9.3,7.7 30.3,7.7 6.5,0 13.6,-0.7 21,-2.2 12.7,-2.5 36.5,-9.3 50.2,-15.3 l -1.2,-3.2 c -34.3,10.2 -59.8,12.3 -75.1,12.3 z"
       id="path4" /><path
       fill="#000000"
       d="m 139,147.9 c -5.4,1.1 -10.5,1.7 -15.1,1.7 -11.9,0 -18,-3.7 -19.6,-4.8 l -1.1,-0.8 -7.8,6.8 1.4,1.3 c 0.3,0.3 8.7,7.8 28.3,7.8 9.2,0 19.4,-1.6 30.3,-4.9 l 6.1,-1.8 -22.1,-5.3 z"
       id="path5" /><path
       fill="#000000"
       d="m 175.2,211.6 c 0.5,-6 -1.2,-8.1 -7.4,-7.8 -3.1,0.1 -6.2,0.9 -9.6,1.4 -0.3,-1.3 -0.7,-2.7 -1,-4.3 6,-2.2 11.9,-3.7 18.1,-2.2 4.4,1 7.2,3.7 7.3,8.2 0.3,8.7 0.1,17.5 0.1,26.6 -2.4,-0.4 -5.7,2 -6.2,-2.1 -3.7,0.9 -7.3,2.5 -11.1,2.7 -5.3,0.4 -8.7,-2.4 -9.7,-6.9 -1.1,-5.1 0.9,-10.4 5.6,-12.1 4.3,-1.7 9,-2.4 13.9,-3.5 z m 0.2,5.5 c -3.3,0.5 -6.2,0.7 -9,1.4 -2.8,0.7 -4.3,3.8 -3.4,6.5 0.9,2.9 3.4,4.2 6.4,3.5 5.1,-1.3 6.1,-2.5 6,-7.9 0,-0.9 0,-1.8 0,-3.5 z m -57.3,16.3 c -1.8,0 -3.4,0 -5.3,0 -0.3,-0.8 -0.6,-1.7 -1,-2.7 -0.4,0 -0.7,0 -0.9,0.1 -3.1,2.3 -6.5,3.6 -10.4,3.4 -4.9,-0.2 -8,-2.3 -9.3,-6.4 -1.4,-4.7 0.1,-9.9 4.3,-12 3.2,-1.6 7,-2.2 10.6,-3.1 1.4,-0.4 3,-0.3 4.5,-0.4 0.8,-6.4 -1.1,-8.6 -7.1,-8.5 -1.6,0 -3.3,0.3 -4.9,0.6 -1.6,0.3 -3.1,0.7 -4.7,1.1 -1.7,-4.5 -1.8,-4.9 2.4,-5.8 4.3,-0.9 8.9,-1.4 13.2,-1.1 5.4,0.4 8.1,3 8.4,8.4 0.5,7.9 0.3,15.8 0.3,23.7 0.2,0.8 0,1.7 -0.1,2.7 z m -7.4,-16.3 c -3.1,0.4 -6,0.6 -8.8,1.3 -2.8,0.7 -4.1,3.6 -3.3,6.5 0.7,2.6 3,4.2 5.8,3.5 6.8,-1.6 7.3,-2.8 6.3,-11.3 z m 11.6,-18 c 0.4,-0.2 0.5,-0.3 0.6,-0.3 7.5,-0.2 7.4,-0.2 9.5,7 1.8,6.2 3.8,12.5 5.7,18.7 0.3,0 0.6,0.1 0.9,0.1 2.1,-8.5 4.2,-17.1 6.3,-25.7 2.1,0 4.5,0 7.6,0 -1.8,6.7 -3.3,13.2 -5.2,19.5 -1.3,4.2 -3.1,8.2 -4.5,12.3 -0.8,2.3 -2.1,3.2 -4.4,2.8 -0.3,0 -0.7,-0.1 -1,0 -3.7,0.8 -5.4,-0.8 -6.4,-4.5 -2.8,-9.9 -6,-19.8 -9.1,-29.9 z M 74.4,246 c -1.2,-1.4 -2.3,-2.8 -3.7,-4.5 7.1,-3.3 7.6,-9.4 7.5,-16.1 -0.2,-11.7 0,-23.3 0,-34.9 0,-1.2 0,-2.4 0,-3.9 2.7,0 5.1,0 7.8,0 0,0.9 0.1,1.7 0.1,2.6 0,13 0,25.9 0,38.9 0,9.5 -2.7,13.4 -11.7,17.9 z"
       id="path6" /></g></g>&#10;</svg>
